<mxfile host="Electron" agent="Mozilla/5.0 (Windows NT 10.0; Win64; x64) AppleWebKit/537.36 (KHTML, like Gecko) draw.io/24.7.8 Chrome/128.0.6613.36 Electron/32.0.1 Safari/537.36" version="24.7.8">
  <diagram name="Page-1" id="2YBvvXClWsGukQMizWep">
    <mxGraphModel dx="940" dy="-635" grid="1" gridSize="10" guides="1" tooltips="1" connect="0" arrows="1" fold="1" page="1" pageScale="1" pageWidth="850" pageHeight="1100" math="0" shadow="0">
      <root>
        <mxCell id="0" />
        <mxCell id="1" parent="0" />
        <mxCell id="amSEo4hXyYTzLOw1Lmv3-1" value="" style="shape=umlLifeline;perimeter=lifelinePerimeter;whiteSpace=wrap;html=1;container=1;dropTarget=0;collapsible=0;recursiveResize=0;outlineConnect=0;portConstraint=eastwest;newEdgeStyle={&quot;curved&quot;:0,&quot;rounded&quot;:0};participant=umlActor;" parent="1" vertex="1">
          <mxGeometry x="200" y="1760" width="40" height="1480" as="geometry" />
        </mxCell>
        <mxCell id="amSEo4hXyYTzLOw1Lmv3-7" value="" style="html=1;points=[[0,0,0,0,5],[0,1,0,0,-5],[1,0,0,0,5],[1,1,0,0,-5]];perimeter=orthogonalPerimeter;outlineConnect=0;targetShapes=umlLifeline;portConstraint=eastwest;newEdgeStyle={&quot;curved&quot;:0,&quot;rounded&quot;:0};" parent="amSEo4hXyYTzLOw1Lmv3-1" vertex="1">
          <mxGeometry x="15" y="140" width="10" height="80" as="geometry" />
        </mxCell>
        <mxCell id="amSEo4hXyYTzLOw1Lmv3-15" value="" style="html=1;points=[[0,0,0,0,5],[0,1,0,0,-5],[1,0,0,0,5],[1,1,0,0,-5]];perimeter=orthogonalPerimeter;outlineConnect=0;targetShapes=umlLifeline;portConstraint=eastwest;newEdgeStyle={&quot;curved&quot;:0,&quot;rounded&quot;:0};" parent="amSEo4hXyYTzLOw1Lmv3-1" vertex="1">
          <mxGeometry x="15" y="300" width="10" height="80" as="geometry" />
        </mxCell>
        <mxCell id="amSEo4hXyYTzLOw1Lmv3-22" value="" style="html=1;points=[[0,0,0,0,5],[0,1,0,0,-5],[1,0,0,0,5],[1,1,0,0,-5]];perimeter=orthogonalPerimeter;outlineConnect=0;targetShapes=umlLifeline;portConstraint=eastwest;newEdgeStyle={&quot;curved&quot;:0,&quot;rounded&quot;:0};" parent="amSEo4hXyYTzLOw1Lmv3-1" vertex="1">
          <mxGeometry x="15" y="399" width="10" height="40" as="geometry" />
        </mxCell>
        <mxCell id="amSEo4hXyYTzLOw1Lmv3-65" value="" style="html=1;points=[[0,0,0,0,5],[0,1,0,0,-5],[1,0,0,0,5],[1,1,0,0,-5]];perimeter=orthogonalPerimeter;outlineConnect=0;targetShapes=umlLifeline;portConstraint=eastwest;newEdgeStyle={&quot;curved&quot;:0,&quot;rounded&quot;:0};" parent="amSEo4hXyYTzLOw1Lmv3-1" vertex="1">
          <mxGeometry x="15" y="1320" width="10" height="40" as="geometry" />
        </mxCell>
        <mxCell id="lRN7ubWciYfzkNExa4QX-1" value="" style="html=1;points=[[0,0,0,0,5],[0,1,0,0,-5],[1,0,0,0,5],[1,1,0,0,-5]];perimeter=orthogonalPerimeter;outlineConnect=0;targetShapes=umlLifeline;portConstraint=eastwest;newEdgeStyle={&quot;curved&quot;:0,&quot;rounded&quot;:0};" parent="amSEo4hXyYTzLOw1Lmv3-1" vertex="1">
          <mxGeometry x="15" y="640" width="10" height="40" as="geometry" />
        </mxCell>
        <mxCell id="lRN7ubWciYfzkNExa4QX-2" value="&lt;font style=&quot;font-size: 14px;&quot;&gt;Delivere Order To Customer&lt;/font&gt;" style="html=1;align=left;spacingLeft=2;endArrow=block;rounded=0;edgeStyle=orthogonalEdgeStyle;curved=0;rounded=0;" parent="amSEo4hXyYTzLOw1Lmv3-1" target="lRN7ubWciYfzkNExa4QX-1" edge="1">
          <mxGeometry relative="1" as="geometry">
            <mxPoint x="20" y="620" as="sourcePoint" />
            <Array as="points">
              <mxPoint x="50" y="650" />
            </Array>
          </mxGeometry>
        </mxCell>
        <mxCell id="lRN7ubWciYfzkNExa4QX-16" value="" style="html=1;points=[[0,0,0,0,5],[0,1,0,0,-5],[1,0,0,0,5],[1,1,0,0,-5]];perimeter=orthogonalPerimeter;outlineConnect=0;targetShapes=umlLifeline;portConstraint=eastwest;newEdgeStyle={&quot;curved&quot;:0,&quot;rounded&quot;:0};" parent="amSEo4hXyYTzLOw1Lmv3-1" vertex="1">
          <mxGeometry x="15" y="1200" width="10" height="80" as="geometry" />
        </mxCell>
        <mxCell id="xbSSwg6umK7tp9owO591-1" value="" style="shape=umlDestroy;whiteSpace=wrap;html=1;strokeWidth=3;targetShapes=umlLifeline;" vertex="1" parent="amSEo4hXyYTzLOw1Lmv3-1">
          <mxGeometry x="5" y="1450" width="30" height="30" as="geometry" />
        </mxCell>
        <mxCell id="amSEo4hXyYTzLOw1Lmv3-2" value="&lt;font style=&quot;font-size: 18px;&quot;&gt;Account&amp;nbsp;&lt;/font&gt;" style="shape=umlLifeline;perimeter=lifelinePerimeter;whiteSpace=wrap;html=1;container=1;dropTarget=0;collapsible=0;recursiveResize=0;outlineConnect=0;portConstraint=eastwest;newEdgeStyle={&quot;curved&quot;:0,&quot;rounded&quot;:0};" parent="1" vertex="1">
          <mxGeometry x="320" y="1760" width="100" height="1480" as="geometry" />
        </mxCell>
        <mxCell id="amSEo4hXyYTzLOw1Lmv3-9" value="" style="html=1;points=[[0,0,0,0,5],[0,1,0,0,-5],[1,0,0,0,5],[1,1,0,0,-5]];perimeter=orthogonalPerimeter;outlineConnect=0;targetShapes=umlLifeline;portConstraint=eastwest;newEdgeStyle={&quot;curved&quot;:0,&quot;rounded&quot;:0};" parent="amSEo4hXyYTzLOw1Lmv3-2" vertex="1">
          <mxGeometry x="45" y="140" width="10" height="80" as="geometry" />
        </mxCell>
        <mxCell id="amSEo4hXyYTzLOw1Lmv3-16" value="" style="html=1;points=[[0,0,0,0,5],[0,1,0,0,-5],[1,0,0,0,5],[1,1,0,0,-5]];perimeter=orthogonalPerimeter;outlineConnect=0;targetShapes=umlLifeline;portConstraint=eastwest;newEdgeStyle={&quot;curved&quot;:0,&quot;rounded&quot;:0};" parent="amSEo4hXyYTzLOw1Lmv3-2" vertex="1">
          <mxGeometry x="45" y="300" width="10" height="80" as="geometry" />
        </mxCell>
        <mxCell id="amSEo4hXyYTzLOw1Lmv3-66" value="" style="html=1;points=[[0,0,0,0,5],[0,1,0,0,-5],[1,0,0,0,5],[1,1,0,0,-5]];perimeter=orthogonalPerimeter;outlineConnect=0;targetShapes=umlLifeline;portConstraint=eastwest;newEdgeStyle={&quot;curved&quot;:0,&quot;rounded&quot;:0};" parent="amSEo4hXyYTzLOw1Lmv3-2" vertex="1">
          <mxGeometry x="45" y="1320" width="10" height="40" as="geometry" />
        </mxCell>
        <mxCell id="xbSSwg6umK7tp9owO591-2" value="" style="shape=umlDestroy;whiteSpace=wrap;html=1;strokeWidth=3;targetShapes=umlLifeline;" vertex="1" parent="amSEo4hXyYTzLOw1Lmv3-2">
          <mxGeometry x="35" y="1450" width="30" height="30" as="geometry" />
        </mxCell>
        <mxCell id="amSEo4hXyYTzLOw1Lmv3-3" value="&lt;font style=&quot;font-size: 18px;&quot;&gt;Product&amp;nbsp;&lt;/font&gt;" style="shape=umlLifeline;perimeter=lifelinePerimeter;whiteSpace=wrap;html=1;container=1;dropTarget=0;collapsible=0;recursiveResize=0;outlineConnect=0;portConstraint=eastwest;newEdgeStyle={&quot;curved&quot;:0,&quot;rounded&quot;:0};" parent="1" vertex="1">
          <mxGeometry x="480" y="1760" width="100" height="1480" as="geometry" />
        </mxCell>
        <mxCell id="xbSSwg6umK7tp9owO591-3" value="" style="shape=umlDestroy;whiteSpace=wrap;html=1;strokeWidth=3;targetShapes=umlLifeline;" vertex="1" parent="amSEo4hXyYTzLOw1Lmv3-3">
          <mxGeometry x="35" y="1450" width="30" height="30" as="geometry" />
        </mxCell>
        <mxCell id="amSEo4hXyYTzLOw1Lmv3-4" value="&lt;font style=&quot;font-size: 18px;&quot;&gt;Order&amp;nbsp;&lt;/font&gt;" style="shape=umlLifeline;perimeter=lifelinePerimeter;whiteSpace=wrap;html=1;container=1;dropTarget=0;collapsible=0;recursiveResize=0;outlineConnect=0;portConstraint=eastwest;newEdgeStyle={&quot;curved&quot;:0,&quot;rounded&quot;:0};" parent="1" vertex="1">
          <mxGeometry x="640" y="1760" width="100" height="1480" as="geometry" />
        </mxCell>
        <mxCell id="amSEo4hXyYTzLOw1Lmv3-23" value="" style="html=1;points=[[0,0,0,0,5],[0,1,0,0,-5],[1,0,0,0,5],[1,1,0,0,-5]];perimeter=orthogonalPerimeter;outlineConnect=0;targetShapes=umlLifeline;portConstraint=eastwest;newEdgeStyle={&quot;curved&quot;:0,&quot;rounded&quot;:0};" parent="amSEo4hXyYTzLOw1Lmv3-4" vertex="1">
          <mxGeometry x="45" y="399" width="10" height="40" as="geometry" />
        </mxCell>
        <mxCell id="xbSSwg6umK7tp9owO591-4" value="" style="shape=umlDestroy;whiteSpace=wrap;html=1;strokeWidth=3;targetShapes=umlLifeline;" vertex="1" parent="amSEo4hXyYTzLOw1Lmv3-4">
          <mxGeometry x="35" y="1450" width="30" height="30" as="geometry" />
        </mxCell>
        <mxCell id="amSEo4hXyYTzLOw1Lmv3-5" value="&lt;font style=&quot;font-size: 18px;&quot;&gt;Payment&amp;nbsp;&lt;/font&gt;" style="shape=umlLifeline;perimeter=lifelinePerimeter;whiteSpace=wrap;html=1;container=1;dropTarget=0;collapsible=0;recursiveResize=0;outlineConnect=0;portConstraint=eastwest;newEdgeStyle={&quot;curved&quot;:0,&quot;rounded&quot;:0};" parent="1" vertex="1">
          <mxGeometry x="800" y="1760" width="100" height="1480" as="geometry" />
        </mxCell>
        <mxCell id="lRN7ubWciYfzkNExa4QX-17" value="" style="html=1;points=[[0,0,0,0,5],[0,1,0,0,-5],[1,0,0,0,5],[1,1,0,0,-5]];perimeter=orthogonalPerimeter;outlineConnect=0;targetShapes=umlLifeline;portConstraint=eastwest;newEdgeStyle={&quot;curved&quot;:0,&quot;rounded&quot;:0};" parent="amSEo4hXyYTzLOw1Lmv3-5" vertex="1">
          <mxGeometry x="45" y="1200" width="10" height="80" as="geometry" />
        </mxCell>
        <mxCell id="xbSSwg6umK7tp9owO591-5" value="" style="shape=umlDestroy;whiteSpace=wrap;html=1;strokeWidth=3;targetShapes=umlLifeline;" vertex="1" parent="amSEo4hXyYTzLOw1Lmv3-5">
          <mxGeometry x="35" y="1450" width="30" height="30" as="geometry" />
        </mxCell>
        <mxCell id="amSEo4hXyYTzLOw1Lmv3-6" value="&lt;font style=&quot;font-size: 18px;&quot;&gt;Database&amp;nbsp;&lt;/font&gt;" style="shape=umlLifeline;perimeter=lifelinePerimeter;whiteSpace=wrap;html=1;container=1;dropTarget=0;collapsible=0;recursiveResize=0;outlineConnect=0;portConstraint=eastwest;newEdgeStyle={&quot;curved&quot;:0,&quot;rounded&quot;:0};" parent="1" vertex="1">
          <mxGeometry x="960" y="1760" width="100" height="1480" as="geometry" />
        </mxCell>
        <mxCell id="amSEo4hXyYTzLOw1Lmv3-12" value="" style="html=1;points=[[0,0,0,0,5],[0,1,0,0,-5],[1,0,0,0,5],[1,1,0,0,-5]];perimeter=orthogonalPerimeter;outlineConnect=0;targetShapes=umlLifeline;portConstraint=eastwest;newEdgeStyle={&quot;curved&quot;:0,&quot;rounded&quot;:0};" parent="amSEo4hXyYTzLOw1Lmv3-6" vertex="1">
          <mxGeometry x="45" y="180" width="10" height="40" as="geometry" />
        </mxCell>
        <mxCell id="amSEo4hXyYTzLOw1Lmv3-18" value="" style="html=1;points=[[0,0,0,0,5],[0,1,0,0,-5],[1,0,0,0,5],[1,1,0,0,-5]];perimeter=orthogonalPerimeter;outlineConnect=0;targetShapes=umlLifeline;portConstraint=eastwest;newEdgeStyle={&quot;curved&quot;:0,&quot;rounded&quot;:0};" parent="amSEo4hXyYTzLOw1Lmv3-6" vertex="1">
          <mxGeometry x="45" y="340" width="10" height="40" as="geometry" />
        </mxCell>
        <mxCell id="lRN7ubWciYfzkNExa4QX-19" value="" style="html=1;points=[[0,0,0,0,5],[0,1,0,0,-5],[1,0,0,0,5],[1,1,0,0,-5]];perimeter=orthogonalPerimeter;outlineConnect=0;targetShapes=umlLifeline;portConstraint=eastwest;newEdgeStyle={&quot;curved&quot;:0,&quot;rounded&quot;:0};" parent="amSEo4hXyYTzLOw1Lmv3-6" vertex="1">
          <mxGeometry x="45" y="1240" width="10" height="40" as="geometry" />
        </mxCell>
        <mxCell id="xbSSwg6umK7tp9owO591-6" value="" style="shape=umlDestroy;whiteSpace=wrap;html=1;strokeWidth=3;targetShapes=umlLifeline;" vertex="1" parent="amSEo4hXyYTzLOw1Lmv3-6">
          <mxGeometry x="35" y="1450" width="30" height="30" as="geometry" />
        </mxCell>
        <mxCell id="amSEo4hXyYTzLOw1Lmv3-8" value="&lt;font style=&quot;font-size: 18px;&quot;&gt;Delivery Partner&amp;nbsp;&lt;/font&gt;" style="text;align=center;fontStyle=1;verticalAlign=middle;spacingLeft=3;spacingRight=3;strokeColor=none;rotatable=0;points=[[0,0.5],[1,0.5]];portConstraint=eastwest;html=1;" parent="1" vertex="1">
          <mxGeometry x="180" y="1800" width="80" height="26" as="geometry" />
        </mxCell>
        <mxCell id="amSEo4hXyYTzLOw1Lmv3-10" value="&lt;font style=&quot;font-size: 18px;&quot;&gt;Login&amp;nbsp;&lt;/font&gt;" style="html=1;verticalAlign=bottom;endArrow=block;curved=0;rounded=0;" parent="1" edge="1">
          <mxGeometry width="80" relative="1" as="geometry">
            <mxPoint x="220" y="1900" as="sourcePoint" />
            <mxPoint x="369.5" y="1900" as="targetPoint" />
          </mxGeometry>
        </mxCell>
        <mxCell id="amSEo4hXyYTzLOw1Lmv3-11" value="&lt;font style=&quot;font-size: 18px;&quot;&gt;check&amp;nbsp;&lt;/font&gt;" style="html=1;verticalAlign=bottom;endArrow=block;curved=0;rounded=0;" parent="1" target="amSEo4hXyYTzLOw1Lmv3-12" edge="1">
          <mxGeometry width="80" relative="1" as="geometry">
            <mxPoint x="370" y="1940" as="sourcePoint" />
            <mxPoint x="450" y="1940" as="targetPoint" />
          </mxGeometry>
        </mxCell>
        <mxCell id="amSEo4hXyYTzLOw1Lmv3-13" value="&lt;font style=&quot;font-size: 18px;&quot;&gt;return&lt;/font&gt;" style="html=1;verticalAlign=bottom;endArrow=open;dashed=1;endSize=8;curved=0;rounded=0;" parent="1" edge="1">
          <mxGeometry relative="1" as="geometry">
            <mxPoint x="1010" y="1980" as="sourcePoint" />
            <mxPoint x="369.5" y="1980" as="targetPoint" />
          </mxGeometry>
        </mxCell>
        <mxCell id="amSEo4hXyYTzLOw1Lmv3-14" value="&lt;font style=&quot;font-size: 18px;&quot;&gt;return&lt;/font&gt;" style="html=1;verticalAlign=bottom;endArrow=open;dashed=1;endSize=8;curved=0;rounded=0;" parent="1" edge="1">
          <mxGeometry relative="1" as="geometry">
            <mxPoint x="370" y="1980" as="sourcePoint" />
            <mxPoint x="219.5" y="1980" as="targetPoint" />
          </mxGeometry>
        </mxCell>
        <mxCell id="amSEo4hXyYTzLOw1Lmv3-19" value="&lt;font style=&quot;font-size: 18px;&quot;&gt;Save&amp;nbsp;&lt;/font&gt;" style="html=1;verticalAlign=bottom;endArrow=block;curved=0;rounded=0;" parent="1" edge="1">
          <mxGeometry width="80" relative="1" as="geometry">
            <mxPoint x="380" y="2100" as="sourcePoint" />
            <mxPoint x="1009.5" y="2100" as="targetPoint" />
          </mxGeometry>
        </mxCell>
        <mxCell id="amSEo4hXyYTzLOw1Lmv3-17" value="&lt;font style=&quot;font-size: 18px;&quot;&gt;Manage&amp;nbsp;&amp;nbsp;&lt;/font&gt;&lt;div&gt;&lt;font style=&quot;font-size: 18px;&quot;&gt;Profile (view , edit)&amp;nbsp;&lt;/font&gt;&lt;/div&gt;" style="html=1;verticalAlign=bottom;endArrow=block;curved=0;rounded=0;" parent="1" edge="1">
          <mxGeometry width="80" relative="1" as="geometry">
            <mxPoint x="220" y="2060" as="sourcePoint" />
            <mxPoint x="369.5" y="2060" as="targetPoint" />
          </mxGeometry>
        </mxCell>
        <mxCell id="amSEo4hXyYTzLOw1Lmv3-20" value="&lt;font style=&quot;font-size: 18px;&quot;&gt;return&lt;/font&gt;" style="html=1;verticalAlign=bottom;endArrow=open;dashed=1;endSize=8;curved=0;rounded=0;" parent="1" edge="1">
          <mxGeometry relative="1" as="geometry">
            <mxPoint x="1010" y="2140" as="sourcePoint" />
            <mxPoint x="369.5" y="2140" as="targetPoint" />
          </mxGeometry>
        </mxCell>
        <mxCell id="amSEo4hXyYTzLOw1Lmv3-21" value="&lt;font style=&quot;font-size: 18px;&quot;&gt;return&lt;/font&gt;" style="html=1;verticalAlign=bottom;endArrow=open;dashed=1;endSize=8;curved=0;rounded=0;" parent="1" edge="1">
          <mxGeometry relative="1" as="geometry">
            <mxPoint x="360" y="2140" as="sourcePoint" />
            <mxPoint x="220" y="2140" as="targetPoint" />
          </mxGeometry>
        </mxCell>
        <mxCell id="amSEo4hXyYTzLOw1Lmv3-24" value="&lt;font style=&quot;font-size: 18px;&quot;&gt;View Order&amp;nbsp;&lt;/font&gt;" style="html=1;verticalAlign=bottom;endArrow=block;curved=0;rounded=0;" parent="1" edge="1">
          <mxGeometry width="80" relative="1" as="geometry">
            <mxPoint x="220" y="2159" as="sourcePoint" />
            <mxPoint x="689.5" y="2159" as="targetPoint" />
          </mxGeometry>
        </mxCell>
        <mxCell id="amSEo4hXyYTzLOw1Lmv3-25" value="&lt;font style=&quot;font-size: 18px;&quot;&gt;return&lt;/font&gt;" style="html=1;verticalAlign=bottom;endArrow=open;dashed=1;endSize=8;curved=0;rounded=0;" parent="1" edge="1">
          <mxGeometry relative="1" as="geometry">
            <mxPoint x="690" y="2199" as="sourcePoint" />
            <mxPoint x="219.5" y="2199" as="targetPoint" />
          </mxGeometry>
        </mxCell>
        <mxCell id="amSEo4hXyYTzLOw1Lmv3-26" value="&lt;font style=&quot;font-size: 14px;&quot;&gt;alt&amp;nbsp;&lt;/font&gt;" style="shape=umlFrame;whiteSpace=wrap;html=1;pointerEvents=0;" parent="1" vertex="1">
          <mxGeometry x="160" y="2230" width="950" height="690" as="geometry" />
        </mxCell>
        <mxCell id="amSEo4hXyYTzLOw1Lmv3-27" value="&lt;font style=&quot;font-size: 18px;&quot;&gt;[ if order == delivery ]&amp;nbsp;&lt;/font&gt;" style="text;align=center;fontStyle=1;verticalAlign=middle;spacingLeft=3;spacingRight=3;strokeColor=none;rotatable=0;points=[[0,0.5],[1,0.5]];portConstraint=eastwest;html=1;" parent="1" vertex="1">
          <mxGeometry x="280" y="2260" width="80" height="26" as="geometry" />
        </mxCell>
        <mxCell id="amSEo4hXyYTzLOw1Lmv3-28" value="" style="html=1;points=[[0,0,0,0,5],[0,1,0,0,-5],[1,0,0,0,5],[1,1,0,0,-5]];perimeter=orthogonalPerimeter;outlineConnect=0;targetShapes=umlLifeline;portConstraint=eastwest;newEdgeStyle={&quot;curved&quot;:0,&quot;rounded&quot;:0};" parent="1" vertex="1">
          <mxGeometry x="215" y="2320" width="10" height="40" as="geometry" />
        </mxCell>
        <mxCell id="amSEo4hXyYTzLOw1Lmv3-29" value="" style="html=1;points=[[0,0,0,0,5],[0,1,0,0,-5],[1,0,0,0,5],[1,1,0,0,-5]];perimeter=orthogonalPerimeter;outlineConnect=0;targetShapes=umlLifeline;portConstraint=eastwest;newEdgeStyle={&quot;curved&quot;:0,&quot;rounded&quot;:0};" parent="1" vertex="1">
          <mxGeometry x="685" y="2320" width="10" height="40" as="geometry" />
        </mxCell>
        <mxCell id="amSEo4hXyYTzLOw1Lmv3-30" value="&lt;font style=&quot;font-size: 18px;&quot;&gt;Select &amp;amp; View All Order Details&amp;nbsp;&lt;/font&gt;" style="html=1;verticalAlign=bottom;endArrow=block;curved=0;rounded=0;" parent="1" edge="1">
          <mxGeometry width="80" relative="1" as="geometry">
            <mxPoint x="220" y="2320" as="sourcePoint" />
            <mxPoint x="689.5" y="2320" as="targetPoint" />
          </mxGeometry>
        </mxCell>
        <mxCell id="amSEo4hXyYTzLOw1Lmv3-31" value="&lt;font style=&quot;font-size: 18px;&quot;&gt;return&lt;/font&gt;" style="html=1;verticalAlign=bottom;endArrow=open;dashed=1;endSize=8;curved=0;rounded=0;" parent="1" edge="1">
          <mxGeometry relative="1" as="geometry">
            <mxPoint x="685" y="2359.5" as="sourcePoint" />
            <mxPoint x="219.5" y="2359.5" as="targetPoint" />
          </mxGeometry>
        </mxCell>
        <mxCell id="amSEo4hXyYTzLOw1Lmv3-45" value="" style="html=1;points=[[0,0,0,0,5],[0,1,0,0,-5],[1,0,0,0,5],[1,1,0,0,-5]];perimeter=orthogonalPerimeter;outlineConnect=0;targetShapes=umlLifeline;portConstraint=eastwest;newEdgeStyle={&quot;curved&quot;:0,&quot;rounded&quot;:0};" parent="1" vertex="1">
          <mxGeometry x="215" y="2470" width="10" height="80" as="geometry" />
        </mxCell>
        <mxCell id="amSEo4hXyYTzLOw1Lmv3-46" value="" style="html=1;points=[[0,0,0,0,5],[0,1,0,0,-5],[1,0,0,0,5],[1,1,0,0,-5]];perimeter=orthogonalPerimeter;outlineConnect=0;targetShapes=umlLifeline;portConstraint=eastwest;newEdgeStyle={&quot;curved&quot;:0,&quot;rounded&quot;:0};" parent="1" vertex="1">
          <mxGeometry x="685" y="2470" width="10" height="80" as="geometry" />
        </mxCell>
        <mxCell id="amSEo4hXyYTzLOw1Lmv3-47" value="&lt;font style=&quot;font-size: 18px;&quot;&gt;Update Status&amp;nbsp;&lt;/font&gt;" style="html=1;verticalAlign=bottom;endArrow=block;curved=0;rounded=0;" parent="1" edge="1">
          <mxGeometry width="80" relative="1" as="geometry">
            <mxPoint x="220" y="2470" as="sourcePoint" />
            <mxPoint x="689.5" y="2470" as="targetPoint" />
          </mxGeometry>
        </mxCell>
        <mxCell id="amSEo4hXyYTzLOw1Lmv3-48" value="" style="html=1;points=[[0,0,0,0,5],[0,1,0,0,-5],[1,0,0,0,5],[1,1,0,0,-5]];perimeter=orthogonalPerimeter;outlineConnect=0;targetShapes=umlLifeline;portConstraint=eastwest;newEdgeStyle={&quot;curved&quot;:0,&quot;rounded&quot;:0};" parent="1" vertex="1">
          <mxGeometry x="1005" y="2510" width="10" height="40" as="geometry" />
        </mxCell>
        <mxCell id="amSEo4hXyYTzLOw1Lmv3-49" value="&lt;font style=&quot;font-size: 18px;&quot;&gt;save&amp;nbsp;&lt;/font&gt;" style="html=1;verticalAlign=bottom;endArrow=block;curved=0;rounded=0;" parent="1" edge="1">
          <mxGeometry width="80" relative="1" as="geometry">
            <mxPoint x="695" y="2510" as="sourcePoint" />
            <mxPoint x="1009.5" y="2510" as="targetPoint" />
          </mxGeometry>
        </mxCell>
        <mxCell id="amSEo4hXyYTzLOw1Lmv3-50" value="&lt;font style=&quot;font-size: 18px;&quot;&gt;return&lt;/font&gt;" style="html=1;verticalAlign=bottom;endArrow=open;dashed=1;endSize=8;curved=0;rounded=0;" parent="1" edge="1">
          <mxGeometry relative="1" as="geometry">
            <mxPoint x="1005" y="2549" as="sourcePoint" />
            <mxPoint x="689.3235294117646" y="2549" as="targetPoint" />
          </mxGeometry>
        </mxCell>
        <mxCell id="amSEo4hXyYTzLOw1Lmv3-51" value="&lt;font style=&quot;font-size: 18px;&quot;&gt;return&lt;/font&gt;" style="html=1;verticalAlign=bottom;endArrow=open;dashed=1;endSize=8;curved=0;rounded=0;" parent="1" edge="1">
          <mxGeometry relative="1" as="geometry">
            <mxPoint x="690" y="2549" as="sourcePoint" />
            <mxPoint x="219.32352941176464" y="2549" as="targetPoint" />
          </mxGeometry>
        </mxCell>
        <mxCell id="amSEo4hXyYTzLOw1Lmv3-52" value="&lt;font style=&quot;font-size: 18px;&quot;&gt;[ Else if order == return ]&amp;nbsp;&amp;nbsp;&lt;/font&gt;" style="text;align=center;fontStyle=1;verticalAlign=middle;spacingLeft=3;spacingRight=3;strokeColor=none;rotatable=0;points=[[0,0.5],[1,0.5]];portConstraint=eastwest;html=1;" parent="1" vertex="1">
          <mxGeometry x="290" y="2600" width="80" height="26" as="geometry" />
        </mxCell>
        <mxCell id="amSEo4hXyYTzLOw1Lmv3-67" value="&lt;font style=&quot;font-size: 18px;&quot;&gt;Logout&amp;nbsp;&lt;/font&gt;" style="html=1;verticalAlign=bottom;endArrow=block;curved=0;rounded=0;" parent="1" edge="1">
          <mxGeometry width="80" relative="1" as="geometry">
            <mxPoint x="225" y="3080" as="sourcePoint" />
            <mxPoint x="369.5" y="3080" as="targetPoint" />
          </mxGeometry>
        </mxCell>
        <mxCell id="amSEo4hXyYTzLOw1Lmv3-68" value="&lt;font style=&quot;font-size: 18px;&quot;&gt;return&lt;/font&gt;" style="html=1;verticalAlign=bottom;endArrow=open;dashed=1;endSize=8;curved=0;rounded=0;" parent="1" edge="1">
          <mxGeometry relative="1" as="geometry">
            <mxPoint x="370" y="3120" as="sourcePoint" />
            <mxPoint x="219.32352941176464" y="3120" as="targetPoint" />
          </mxGeometry>
        </mxCell>
        <mxCell id="lRN7ubWciYfzkNExa4QX-3" value="" style="html=1;points=[[0,0,0,0,5],[0,1,0,0,-5],[1,0,0,0,5],[1,1,0,0,-5]];perimeter=orthogonalPerimeter;outlineConnect=0;targetShapes=umlLifeline;portConstraint=eastwest;newEdgeStyle={&quot;curved&quot;:0,&quot;rounded&quot;:0};" parent="1" vertex="1">
          <mxGeometry x="215" y="2750" width="10" height="40" as="geometry" />
        </mxCell>
        <mxCell id="lRN7ubWciYfzkNExa4QX-4" value="&lt;font style=&quot;font-size: 14px;&quot;&gt;Take Order From Customer&lt;/font&gt;" style="html=1;align=left;spacingLeft=2;endArrow=block;rounded=0;edgeStyle=orthogonalEdgeStyle;curved=0;rounded=0;" parent="1" target="lRN7ubWciYfzkNExa4QX-3" edge="1">
          <mxGeometry relative="1" as="geometry">
            <mxPoint x="220" y="2730" as="sourcePoint" />
            <Array as="points">
              <mxPoint x="250" y="2760" />
            </Array>
          </mxGeometry>
        </mxCell>
        <mxCell id="lRN7ubWciYfzkNExa4QX-5" value="" style="html=1;points=[[0,0,0,0,5],[0,1,0,0,-5],[1,0,0,0,5],[1,1,0,0,-5]];perimeter=orthogonalPerimeter;outlineConnect=0;targetShapes=umlLifeline;portConstraint=eastwest;newEdgeStyle={&quot;curved&quot;:0,&quot;rounded&quot;:0};" parent="1" vertex="1">
          <mxGeometry x="215" y="2670" width="10" height="40" as="geometry" />
        </mxCell>
        <mxCell id="lRN7ubWciYfzkNExa4QX-6" value="" style="html=1;points=[[0,0,0,0,5],[0,1,0,0,-5],[1,0,0,0,5],[1,1,0,0,-5]];perimeter=orthogonalPerimeter;outlineConnect=0;targetShapes=umlLifeline;portConstraint=eastwest;newEdgeStyle={&quot;curved&quot;:0,&quot;rounded&quot;:0};" parent="1" vertex="1">
          <mxGeometry x="685" y="2670" width="10" height="40" as="geometry" />
        </mxCell>
        <mxCell id="lRN7ubWciYfzkNExa4QX-7" value="&lt;font style=&quot;font-size: 18px;&quot;&gt;Select &amp;amp; View All Order Details&amp;nbsp;&lt;/font&gt;" style="html=1;verticalAlign=bottom;endArrow=block;curved=0;rounded=0;" parent="1" edge="1">
          <mxGeometry width="80" relative="1" as="geometry">
            <mxPoint x="220" y="2670" as="sourcePoint" />
            <mxPoint x="690" y="2670" as="targetPoint" />
          </mxGeometry>
        </mxCell>
        <mxCell id="lRN7ubWciYfzkNExa4QX-8" value="&lt;font style=&quot;font-size: 18px;&quot;&gt;return&lt;/font&gt;" style="html=1;verticalAlign=bottom;endArrow=open;dashed=1;endSize=8;curved=0;rounded=0;" parent="1" edge="1">
          <mxGeometry relative="1" as="geometry">
            <mxPoint x="685" y="2709.5" as="sourcePoint" />
            <mxPoint x="219" y="2710" as="targetPoint" />
          </mxGeometry>
        </mxCell>
        <mxCell id="lRN7ubWciYfzkNExa4QX-9" value="" style="html=1;points=[[0,0,0,0,5],[0,1,0,0,-5],[1,0,0,0,5],[1,1,0,0,-5]];perimeter=orthogonalPerimeter;outlineConnect=0;targetShapes=umlLifeline;portConstraint=eastwest;newEdgeStyle={&quot;curved&quot;:0,&quot;rounded&quot;:0};" parent="1" vertex="1">
          <mxGeometry x="215" y="2820" width="10" height="80" as="geometry" />
        </mxCell>
        <mxCell id="lRN7ubWciYfzkNExa4QX-10" value="" style="html=1;points=[[0,0,0,0,5],[0,1,0,0,-5],[1,0,0,0,5],[1,1,0,0,-5]];perimeter=orthogonalPerimeter;outlineConnect=0;targetShapes=umlLifeline;portConstraint=eastwest;newEdgeStyle={&quot;curved&quot;:0,&quot;rounded&quot;:0};" parent="1" vertex="1">
          <mxGeometry x="685" y="2820" width="10" height="80" as="geometry" />
        </mxCell>
        <mxCell id="lRN7ubWciYfzkNExa4QX-11" value="&lt;font style=&quot;font-size: 18px;&quot;&gt;Update Status&amp;nbsp;&lt;/font&gt;" style="html=1;verticalAlign=bottom;endArrow=block;curved=0;rounded=0;" parent="1" edge="1">
          <mxGeometry width="80" relative="1" as="geometry">
            <mxPoint x="220" y="2820" as="sourcePoint" />
            <mxPoint x="689.5" y="2820" as="targetPoint" />
          </mxGeometry>
        </mxCell>
        <mxCell id="lRN7ubWciYfzkNExa4QX-12" value="" style="html=1;points=[[0,0,0,0,5],[0,1,0,0,-5],[1,0,0,0,5],[1,1,0,0,-5]];perimeter=orthogonalPerimeter;outlineConnect=0;targetShapes=umlLifeline;portConstraint=eastwest;newEdgeStyle={&quot;curved&quot;:0,&quot;rounded&quot;:0};" parent="1" vertex="1">
          <mxGeometry x="1005" y="2860" width="10" height="40" as="geometry" />
        </mxCell>
        <mxCell id="lRN7ubWciYfzkNExa4QX-13" value="&lt;font style=&quot;font-size: 18px;&quot;&gt;save&amp;nbsp;&lt;/font&gt;" style="html=1;verticalAlign=bottom;endArrow=block;curved=0;rounded=0;" parent="1" edge="1">
          <mxGeometry width="80" relative="1" as="geometry">
            <mxPoint x="695" y="2860" as="sourcePoint" />
            <mxPoint x="1009.5" y="2860" as="targetPoint" />
          </mxGeometry>
        </mxCell>
        <mxCell id="lRN7ubWciYfzkNExa4QX-14" value="&lt;font style=&quot;font-size: 18px;&quot;&gt;return&lt;/font&gt;" style="html=1;verticalAlign=bottom;endArrow=open;dashed=1;endSize=8;curved=0;rounded=0;" parent="1" edge="1">
          <mxGeometry relative="1" as="geometry">
            <mxPoint x="1005" y="2899" as="sourcePoint" />
            <mxPoint x="689.3235294117646" y="2899" as="targetPoint" />
          </mxGeometry>
        </mxCell>
        <mxCell id="lRN7ubWciYfzkNExa4QX-15" value="&lt;font style=&quot;font-size: 18px;&quot;&gt;return&lt;/font&gt;" style="html=1;verticalAlign=bottom;endArrow=open;dashed=1;endSize=8;curved=0;rounded=0;" parent="1" edge="1">
          <mxGeometry relative="1" as="geometry">
            <mxPoint x="690" y="2899" as="sourcePoint" />
            <mxPoint x="219.32352941176464" y="2899" as="targetPoint" />
          </mxGeometry>
        </mxCell>
        <mxCell id="lRN7ubWciYfzkNExa4QX-18" value="&lt;font style=&quot;font-size: 18px;&quot;&gt;Manage Payment&lt;/font&gt;" style="html=1;verticalAlign=bottom;endArrow=block;curved=0;rounded=0;" parent="1" edge="1">
          <mxGeometry width="80" relative="1" as="geometry">
            <mxPoint x="225" y="2960" as="sourcePoint" />
            <mxPoint x="849.5" y="2960" as="targetPoint" />
          </mxGeometry>
        </mxCell>
        <mxCell id="lRN7ubWciYfzkNExa4QX-20" value="&lt;font style=&quot;font-size: 18px;&quot;&gt;save&amp;nbsp;&lt;/font&gt;" style="html=1;verticalAlign=bottom;endArrow=block;curved=0;rounded=0;" parent="1" edge="1">
          <mxGeometry width="80" relative="1" as="geometry">
            <mxPoint x="860" y="3000" as="sourcePoint" />
            <mxPoint x="1005" y="3000" as="targetPoint" />
          </mxGeometry>
        </mxCell>
        <mxCell id="lRN7ubWciYfzkNExa4QX-21" value="&lt;font style=&quot;font-size: 18px;&quot;&gt;return&lt;/font&gt;" style="html=1;verticalAlign=bottom;endArrow=open;dashed=1;endSize=8;curved=0;rounded=0;" parent="1" edge="1">
          <mxGeometry relative="1" as="geometry">
            <mxPoint x="1005" y="3040" as="sourcePoint" />
            <mxPoint x="860" y="3040" as="targetPoint" />
          </mxGeometry>
        </mxCell>
        <mxCell id="lRN7ubWciYfzkNExa4QX-22" value="&lt;font style=&quot;font-size: 18px;&quot;&gt;return&lt;/font&gt;" style="html=1;verticalAlign=bottom;endArrow=open;dashed=1;endSize=8;curved=0;rounded=0;" parent="1" edge="1">
          <mxGeometry relative="1" as="geometry">
            <mxPoint x="840.6800000000001" y="3040" as="sourcePoint" />
            <mxPoint x="219.5" y="3040" as="targetPoint" />
          </mxGeometry>
        </mxCell>
        <mxCell id="RMj0rFa2I7P7Sg7KWf0m-1" value="" style="endArrow=none;dashed=1;html=1;rounded=0;exitX=0.002;exitY=0.524;exitDx=0;exitDy=0;exitPerimeter=0;entryX=1;entryY=0.525;entryDx=0;entryDy=0;entryPerimeter=0;" parent="1" source="amSEo4hXyYTzLOw1Lmv3-26" target="amSEo4hXyYTzLOw1Lmv3-26" edge="1">
          <mxGeometry width="50" height="50" relative="1" as="geometry">
            <mxPoint x="620" y="2570" as="sourcePoint" />
            <mxPoint x="670" y="2520" as="targetPoint" />
          </mxGeometry>
        </mxCell>
      </root>
    </mxGraphModel>
  </diagram>
</mxfile>
